<svg width="70" height="22" viewBox="0 0 70 22" fill="none" xmlns="http://www.w3.org/2000/svg">
<g clip-path="url(#clip0_419_18)">
<path d="M19.0162 17.4087L18.7337 16.6516L18.217 15.2655L12.5267 -3.05176e-05H7.6798L-0.00012207 21.2277H2.8614L5.12615 14.8886H15.1489L16.3044 18.0177L16.413 18.3107C16.4868 18.4955 16.5712 18.6708 16.664 18.8336C17.1026 19.6022 17.7542 20.1777 18.6198 20.5599C18.7147 20.6029 18.8117 20.6418 18.9118 20.6796C19.0689 20.7384 19.2324 20.7919 19.4021 20.8402C19.7047 20.9284 20.0305 21.003 20.3774 21.0618L19.0162 17.4087ZM6.04133 12.3296L9.5323 2.55893H10.594L14.2031 12.3296H6.04133Z" fill="#264C36"/>
<path d="M20.0305 0V2.2093H22.1909V21.2277H24.9944V2.2093V0H22.1909H20.0305Z" fill="#264C36"/>
<path d="M43.5943 10.2789C43.2252 9.31916 42.6801 8.45707 41.96 7.69159C41.2399 6.92505 40.3637 6.31498 39.3326 5.85926C38.3004 5.40459 37.1226 5.17673 35.7984 5.17673C34.4741 5.17673 33.2985 5.40459 32.2663 5.85926C31.2341 6.31498 30.3579 6.92505 29.6388 7.69159C28.9176 8.45707 28.3725 9.31916 28.0035 10.2789C27.6324 11.2397 27.4479 12.2131 27.4479 13.2022V13.7262C27.4479 14.7143 27.6282 15.6835 27.9877 16.6327C28.3483 17.5841 28.8839 18.4409 29.5935 19.2074C30.3041 19.9729 31.175 20.5883 32.2072 21.0534C33.2395 21.5186 34.4361 21.7507 35.7984 21.7507C37.1606 21.7507 38.3583 21.5186 39.3906 21.0534C40.4228 20.5883 41.2926 19.9729 42.0043 19.2074C42.7149 18.4409 43.2495 17.5841 43.609 16.6327C43.9696 15.6835 44.1499 14.7143 44.1499 13.7262V13.2022C44.1499 12.2131 43.9654 11.2397 43.5943 10.2789ZM40.6906 16.4007C40.252 17.2733 39.6194 17.9663 38.7927 18.4798C37.9651 18.9943 36.9677 19.2505 35.7984 19.2505C34.6291 19.2505 33.6338 18.9943 32.8061 18.4798C31.9795 17.9663 31.3469 17.2733 30.9083 16.4007C30.4697 15.5281 30.2514 14.5494 30.2514 13.4637C30.2514 12.3779 30.4749 11.3699 30.923 10.4984C31.3711 9.62577 32.0122 8.93694 32.8493 8.43292C33.6876 7.9289 34.6702 7.67689 35.7984 7.67689C36.9265 7.67689 37.9355 7.9289 38.7632 8.43292C39.5898 8.93694 40.2267 9.62577 40.6758 10.4984C41.1229 11.3699 41.3474 12.358 41.3474 13.4637C41.3474 14.5694 41.1271 15.5281 40.6906 16.4007Z" fill="#264C36"/>
<path d="M64.5212 7.93832C64.0341 7.08568 63.2855 6.4693 62.2733 6.09129C62.1162 6.03353 61.9528 5.97893 61.7831 5.93063C60.851 5.65972 59.7102 5.52426 58.3606 5.52426H54.7199C52.7146 5.52426 51.211 6.05348 50.2094 7.10983C49.4872 7.87006 49.0243 8.94636 48.8219 10.3356V5.69962H46.6035V21.2277H49.4049V12.8231C49.4049 11.2733 49.8235 10.0857 50.6617 9.26243C51.4989 8.43709 52.6956 8.02652 54.2529 8.02652H59.7186C60.1151 8.02652 60.5126 8.08742 60.8805 8.23548C61.2116 8.36779 61.4963 8.5505 61.7335 8.78256C62.2881 9.32543 62.5654 10.1287 62.5654 11.1956V11.5736H58.6232C57.2799 11.5736 56.1317 11.7626 55.1775 12.1406C54.2244 12.5186 53.499 13.0762 53.0013 13.8133C52.5058 14.5494 52.258 15.4703 52.258 16.576C52.258 17.6817 52.4868 18.5532 52.9444 19.3093C53.4009 20.0653 54.0536 20.6418 54.9002 21.0387C55.7469 21.4356 56.7548 21.6351 57.9231 21.6351C59.0122 21.6351 59.9422 21.4409 60.7108 21.0534C61.4794 20.6659 62.0836 20.0989 62.5211 19.3523C62.7214 19.0142 62.8828 18.6383 63.0114 18.2256C63.0188 18.2036 63.0262 18.1815 63.0325 18.1584V18.2802C63.1094 18.4766 63.198 18.6614 63.2961 18.8336C63.7347 19.6022 64.3863 20.1777 65.2519 20.5599V11.3993C65.2519 9.94496 65.0083 8.79096 64.5212 7.93832ZM62.5654 15.4703C62.5264 16.4783 62.306 17.269 61.9085 17.8403C61.5089 18.4125 61.0071 18.8189 60.404 19.0615C59.8009 19.304 59.1672 19.4248 58.5061 19.4248C57.378 19.4248 56.5113 19.1633 55.9082 18.6404C55.3041 18.1164 55.0015 17.4297 55.0015 16.576C55.0015 15.7223 55.3041 15.0251 55.9082 14.4822C56.5113 13.9393 57.378 13.6674 58.5061 13.6674H62.5654V15.4703Z" fill="#264C36"/>
<path d="M69.4831 18.7454V21.2466H69.4567C68.1071 21.2466 66.9663 21.1122 66.0343 20.8402C65.8645 20.7919 65.7011 20.7384 65.544 20.6796C65.4438 20.6418 65.3468 20.6029 65.2519 20.5599C64.3863 20.1777 63.7347 19.6022 63.2961 18.8336C63.198 18.6614 63.1095 18.4766 63.0325 18.2802C63.0241 18.2624 63.0167 18.2435 63.0114 18.2256C62.713 17.457 62.5654 16.5067 62.5654 15.3716V15.2655H65.2519V15.5763C65.2519 16.6421 65.5292 17.4465 66.0838 17.9894C66.321 18.2214 66.6057 18.4041 66.9368 18.5364C67.3048 18.6834 67.7022 18.7454 68.0987 18.7454H69.4831Z" fill="#264C36"/>
<path d="M22.8508 18.7454V21.2466H22.8244C21.9135 21.2466 21.0974 21.1857 20.3773 21.0618C20.0304 21.003 19.7046 20.9284 19.402 20.8402C19.2322 20.7919 19.0688 20.7384 18.9117 20.6796C18.8116 20.6418 18.7146 20.6029 18.6197 20.5599C17.754 20.1777 17.1024 19.6022 16.6638 18.8336C16.5711 18.6708 16.4867 18.4955 16.4129 18.3107C16.4087 18.3012 16.4045 18.2907 16.4002 18.2802C16.3918 18.2624 16.3844 18.2435 16.3792 18.2256C16.3528 18.1574 16.3275 18.0881 16.3043 18.0177C16.0555 17.2879 15.9332 16.4069 15.9332 15.3716V15.2655H18.2169L18.7335 16.6516C18.7989 16.9309 18.8927 17.1829 19.0161 17.4087C19.1342 17.6271 19.2797 17.8203 19.4516 17.9894C19.6888 18.2214 19.9735 18.4041 20.3045 18.5364C20.6725 18.6834 21.07 18.7454 21.4664 18.7454H22.8508Z" fill="#264C36"/>
</g>
<defs>
<clipPath id="clip0_419_18">
<rect width="69.4831" height="21.7507" fill="white"/>
</clipPath>
</defs>
</svg>
