<svg width="100" height="22" viewBox="0 0 100 22" fill="none" xmlns="http://www.w3.org/2000/svg">
<path d="M29.028 16.6781C29.028 18.0161 28.4933 19.2323 27.6229 20.1235C26.7517 21.0147 25.5456 21.5808 24.2021 21.6178C23.5147 21.6363 22.8274 21.6472 22.14 21.6472C21.4526 21.6472 20.7653 21.6371 20.0779 21.6178C18.7352 21.5808 17.5283 21.0147 16.6588 20.1235C15.7875 19.2323 15.252 18.0161 15.252 16.6781C15.252 14.9562 16.1367 13.4358 17.4836 12.5497C18.2427 12.0499 18.618 10.8564 17.9753 10.2163C17.7442 9.98616 17.4263 9.87949 17.1016 9.87949C17.0501 9.87949 16.9987 9.88201 16.9472 9.88705C16.8249 9.89965 16.7009 9.90805 16.5753 9.91141C15.8879 9.92989 15.2005 9.93997 14.5132 9.93997C13.8258 9.93997 13.1384 9.92989 12.4511 9.91141C12.3254 9.90721 12.2014 9.89881 12.0791 9.88705C11.7047 9.84841 11.3201 9.95005 11.0527 10.2155C10.8242 10.4431 10.7246 10.7404 10.7246 11.0512C10.7246 11.6165 11.0536 12.2263 11.5436 12.548C11.9138 12.7916 12.2487 13.0831 12.5396 13.414C13.3096 14.285 13.7752 15.4274 13.7752 16.6764C13.7752 18.0144 13.2405 19.2307 12.3693 20.1218C11.4989 21.013 10.2928 21.5792 8.95013 21.6161C8.26276 21.6346 7.57539 21.6455 6.88802 21.6455C6.20065 21.6455 5.51328 21.6354 4.82592 21.6161C3.48239 21.5792 2.27717 21.013 1.4051 20.1218C0.534714 19.2307 0 18.0144 0 16.6764C0 15.3383 0.534714 14.1204 1.4051 13.2292C2.27633 12.3363 3.48239 11.7711 4.82592 11.7349C5.38003 11.7198 5.93583 11.7114 6.49078 11.7089C7.06935 11.7064 7.62599 11.4804 8.03504 11.0731L8.2071 10.9017C9.10194 10.0105 8.88771 8.49525 8.26529 7.39828C8.06118 7.03878 7.90178 6.65156 7.79298 6.24419C7.68334 5.83681 7.62599 5.41012 7.62599 4.96914C7.62599 3.63194 8.16071 2.41402 9.03109 1.52283C9.90148 0.629963 11.1075 0.0646758 12.4519 0.028558C13.1393 0.0100791 13.8266 0 14.514 0C15.2014 0 15.8888 0.0100791 16.5761 0.028558C17.9197 0.0646758 19.1266 0.630803 19.9969 1.52283C20.8673 2.41402 21.402 3.63194 21.402 4.96914C21.402 5.76458 21.2131 6.51717 20.8774 7.18325C20.2542 8.42134 20.0096 10.0937 20.993 11.0731C21.1979 11.2763 21.4391 11.4351 21.7014 11.5426C21.9646 11.6501 22.248 11.7072 22.5381 11.7089C23.093 11.7114 23.648 11.7198 24.2021 11.7349C25.5456 11.7711 26.7509 12.3372 27.6229 13.2292C28.4933 14.1204 29.028 15.3375 29.028 16.6764V16.6781Z" fill="url(#paint0_radial_208_133048)"/>
<g clip-path="url(#clip0_208_133048)">
<path d="M49.5332 17.4087L49.2506 16.6516L48.734 15.2655L43.0436 -3.05176e-05H38.1968L30.5168 21.2277H33.3784L35.6431 14.8886H45.6658L46.8214 18.0177L46.93 18.3107C47.0038 18.4955 47.0881 18.6708 47.1809 18.8336C47.6195 19.6022 48.2711 20.1777 49.1368 20.5599C49.2317 20.6029 49.3287 20.6418 49.4288 20.6796C49.5859 20.7384 49.7493 20.7919 49.9191 20.8402C50.2217 20.9284 50.5475 21.003 50.8944 21.0618L49.5332 17.4087ZM36.5583 12.3296L40.0493 2.55893H41.111L44.7201 12.3296H36.5583Z" fill="#264C36"/>
<path d="M50.5475 0V2.2093H52.7079V21.2277H55.5114V2.2093V0H52.7079H50.5475Z" fill="#264C36"/>
<path d="M74.1112 10.2789C73.7422 9.31916 73.1971 8.45707 72.477 7.69159C71.7569 6.92505 70.8807 6.31498 69.8495 5.85926C68.8173 5.40459 67.6396 5.17673 66.3153 5.17673C64.9911 5.17673 63.8155 5.40459 62.7832 5.85926C61.751 6.31498 60.8749 6.92505 60.1558 7.69159C59.4346 8.45707 58.8895 9.31916 58.5205 10.2789C58.1494 11.2397 57.9648 12.2131 57.9648 13.2022V13.7262C57.9648 14.7143 58.1451 15.6835 58.5047 16.6327C58.8653 17.5841 59.4009 18.4409 60.1105 19.2074C60.8211 19.9729 61.692 20.5883 62.7242 21.0534C63.7564 21.5186 64.9531 21.7507 66.3153 21.7507C67.6776 21.7507 68.8753 21.5186 69.9075 21.0534C70.9397 20.5883 71.8096 19.9729 72.5213 19.2074C73.2319 18.4409 73.7665 17.5841 74.126 16.6327C74.4866 15.6835 74.6669 14.7143 74.6669 13.7262V13.2022C74.6669 12.2131 74.4824 11.2397 74.1112 10.2789ZM71.2075 16.4007C70.7689 17.2733 70.1363 17.9663 69.3097 18.4798C68.482 18.9943 67.4846 19.2505 66.3153 19.2505C65.1461 19.2505 64.1507 18.9943 63.3231 18.4798C62.4965 17.9663 61.8639 17.2733 61.4252 16.4007C60.9866 15.5281 60.7684 14.5494 60.7684 13.4637C60.7684 12.3779 60.9919 11.3699 61.44 10.4984C61.8881 9.62577 62.5291 8.93694 63.3663 8.43292C64.2045 7.9289 65.1872 7.67689 66.3153 7.67689C67.4435 7.67689 68.4525 7.9289 69.2802 8.43292C70.1068 8.93694 70.7436 9.62577 71.1928 10.4984C71.6398 11.3699 71.8644 12.358 71.8644 13.4637C71.8644 14.5694 71.644 15.5281 71.2075 16.4007Z" fill="#264C36"/>
<path d="M95.0382 7.93832C94.5511 7.08568 93.8025 6.4693 92.7903 6.09129C92.6332 6.03353 92.4698 5.97893 92.3 5.93063C91.368 5.65972 90.2272 5.52426 88.8776 5.52426H85.2369C83.2315 5.52426 81.728 6.05348 80.7264 7.10983C80.0041 7.87006 79.5413 8.94636 79.3388 10.3356V5.69962H77.1205V21.2277H79.9219V12.8231C79.9219 11.2733 80.3405 10.0857 81.1787 9.26243C82.0159 8.43709 83.2125 8.02652 84.7698 8.02652H90.2356C90.632 8.02652 91.0295 8.08742 91.3975 8.23548C91.7286 8.36779 92.0133 8.55049 92.2505 8.78256C92.8051 9.32543 93.0824 10.1287 93.0824 11.1956V11.5736H89.1401C87.7969 11.5736 86.6487 11.7626 85.6945 12.1406C84.7414 12.5186 84.016 13.0762 83.5183 13.8133C83.0228 14.5494 82.775 15.4703 82.775 16.576C82.775 17.6817 83.0038 18.5532 83.4614 19.3093C83.9179 20.0653 84.5706 20.6418 85.4172 21.0387C86.2639 21.4356 87.2718 21.6351 88.44 21.6351C89.5292 21.6351 90.4591 21.4409 91.2278 21.0534C91.9964 20.6659 92.6005 20.0989 93.0381 19.3523C93.2384 19.0142 93.3997 18.6383 93.5284 18.2256C93.5357 18.2036 93.5431 18.1815 93.5494 18.1584V18.2802C93.6264 18.4766 93.715 18.6614 93.813 18.8336C94.2516 19.6022 94.9032 20.1777 95.7689 20.5599V11.3993C95.7689 9.94496 95.5253 8.79096 95.0382 7.93832ZM93.0824 15.4703C93.0434 16.4783 92.823 17.269 92.4255 17.8403C92.0259 18.4125 91.524 18.8189 90.9209 19.0615C90.3178 19.304 89.6842 19.4248 89.0231 19.4248C87.8949 19.4248 87.0283 19.1633 86.4252 18.6404C85.821 18.1164 85.5184 17.4297 85.5184 16.576C85.5184 15.7223 85.821 15.0251 86.4252 14.4822C87.0283 13.9393 87.8949 13.6674 89.0231 13.6674H93.0824V15.4703Z" fill="#264C36"/>
<path d="M100 18.7454V21.2466H99.9737C98.6241 21.2466 97.4833 21.1122 96.5512 20.8402C96.3815 20.7919 96.218 20.7384 96.061 20.6796C95.9608 20.6418 95.8638 20.6029 95.7689 20.5599C94.9033 20.1777 94.2517 19.6022 93.8131 18.8336C93.715 18.6614 93.6264 18.4766 93.5495 18.2802C93.541 18.2624 93.5337 18.2435 93.5284 18.2256C93.23 17.457 93.0824 16.5067 93.0824 15.3716V15.2655H95.7689V15.5763C95.7689 16.6421 96.0462 17.4465 96.6008 17.9894C96.838 18.2214 97.1227 18.4041 97.4538 18.5364C97.8217 18.6834 98.2192 18.7454 98.6157 18.7454H100Z" fill="#264C36"/>
<path d="M53.3678 18.7454V21.2466H53.3414C52.4304 21.2466 51.6144 21.1857 50.8942 21.0618C50.5474 21.003 50.2216 20.9284 49.919 20.8402C49.7492 20.7919 49.5858 20.7384 49.4287 20.6796C49.3285 20.6418 49.2315 20.6029 49.1366 20.5599C48.271 20.1777 47.6194 19.6022 47.1808 18.8336C47.088 18.6708 47.0037 18.4955 46.9299 18.3107C46.9256 18.3012 46.9214 18.2907 46.9172 18.2802C46.9088 18.2624 46.9014 18.2435 46.8961 18.2256C46.8698 18.1574 46.8445 18.0881 46.8213 18.0177C46.5724 17.2879 46.4501 16.4069 46.4501 15.3716V15.2655H48.7339L49.2505 16.6516C49.3159 16.9309 49.4097 17.1829 49.5331 17.4087C49.6512 17.6271 49.7967 17.8203 49.9685 17.9894C50.2057 18.2214 50.4904 18.4041 50.8215 18.5364C51.1895 18.6834 51.587 18.7454 51.9834 18.7454H53.3678Z" fill="#264C36"/>
</g>
<defs>
<radialGradient id="paint0_radial_208_133048" cx="0" cy="0" r="1" gradientTransform="matrix(-58.5883 -20.6065 25.7257 -72.5466 40.7114 14.2786)" gradientUnits="userSpaceOnUse">
<stop stop-color="#D1EDDC"/>
<stop offset="0.32" stop-color="#4D996D"/>
<stop offset="0.65" stop-color="#3A7352"/>
<stop offset="1" stop-color="#011A0C"/>
</radialGradient>
<clipPath id="clip0_208_133048">
<rect width="69.4831" height="21.7507" fill="white" transform="translate(30.517)"/>
</clipPath>
</defs>
</svg>
