<?xml version="1.0" encoding="UTF-8"?> <svg xmlns="http://www.w3.org/2000/svg" width="187" height="88.569" viewBox="320.594 279.7 187 88.569"><g id="octal_logo"><path id="Path_8748" data-name="Path 8748" d="M478.954,349.787h-1.887v11.569h1.887v-5.188c0-3.646,1.444-5.071,3.819-5.071,1.732,0,2.953.817,2.953,2.758v7.5h1.888v-7.993c0-2.992-2.043-3.833-4.353-3.833-1.865,0-3.508.654-4.263,2.454l-.044-.047Zm-9.814,10.377c-2.864,0-3.752-2.313-3.752-4.6,0-2.945,1.31-4.581,3.73-4.581,2.442,0,3.752,1.636,3.752,4.581,0,2.291-.888,4.6-3.73,4.6m0,1.45c4.485,0,5.618-3.67,5.618-6.054s-1.133-6.029-5.618-6.029c-4.507,0-5.639,3.645-5.639,6.029s1.133,6.054,5.639,6.054m-10.08-14.281H461.1v-1.566h-2.042Zm.089,14.023h1.887V349.787h-1.887Zm-4.84-11.569v-2.524l-1.888.42v2.1h-1.376v1.449h1.376v7.6c0,2.033.911,2.782,2.8,2.782a8.774,8.774,0,0,0,2.021-.28l.222-1.566a6.74,6.74,0,0,1-1.665.28c-1.221,0-1.487-.888-1.487-1.987v-6.825h3v-1.449Zm-6.972,11.569h1.887v-8.835c0-1.823-1.044-2.991-4.307-2.991a14.9,14.9,0,0,0-4.064.607l-.222,1.589a9.156,9.156,0,0,1,4.086-.982c1.043,0,2.62.258,2.62,1.659,0,3.109-7.927,1.426-7.927,5.913,0,2.337,1.576,3.3,3.885,3.3a12.142,12.142,0,0,0,2.51-.234l.31-1.4a6.936,6.936,0,0,1-2.287.421c-1.133,0-2.531-.421-2.531-1.893,0-2.711,4.751-2.524,6.04-3.856ZM434.5,349.787h-1.887v11.569H434.5v-6.52c0-1.987,1.133-3.74,2.931-3.74a4.105,4.105,0,0,1,1.266.28l-.178-1.73a3.1,3.1,0,0,0-.844-.116,3.146,3.146,0,0,0-3.131,1.963l-.044.046Zm-9.969,10.377c-2.865,0-3.753-2.313-3.753-4.6,0-2.945,1.31-4.581,3.73-4.581,2.443,0,3.753,1.636,3.753,4.581,0,2.291-.888,4.6-3.73,4.6m0,1.45c4.485,0,5.618-3.67,5.618-6.054s-1.133-6.029-5.618-6.029c-4.508,0-5.64,3.645-5.64,6.029s1.133,6.054,5.64,6.054M408.3,351.563a8.439,8.439,0,0,1,2.975-.584c2.531,0,4,1.542,4,4.511,0,2.033-.844,4.674-3.464,4.674-2.642,0-3.508-2.2-3.508-4.44ZM406.414,366.5H408.3v-7.175h.044a4.31,4.31,0,0,0,3.841,2.291c3.574,0,4.974-3.086,4.974-6.147,0-4.581-2.576-5.936-5.64-5.936a21.659,21.659,0,0,0-5.107.678Zm-5.839-16.711h-1.887v11.569h1.887v-6.52c0-1.987,1.133-3.74,2.932-3.74a4.092,4.092,0,0,1,1.265.28l-.178-1.73a3.09,3.09,0,0,0-.843-.116,3.144,3.144,0,0,0-3.131,1.963l-.045.046Zm-9.969,10.377c-2.864,0-3.752-2.313-3.752-4.6,0-2.945,1.31-4.581,3.73-4.581,2.442,0,3.752,1.636,3.752,4.581,0,2.291-.888,4.6-3.73,4.6m0,1.45c4.485,0,5.618-3.67,5.618-6.054s-1.133-6.029-5.618-6.029c-4.507,0-5.639,3.645-5.639,6.029s1.133,6.054,5.639,6.054m-7.66-11.64a10.077,10.077,0,0,0-2.8-.444c-3.908,0-5.639,2.15-5.639,6.029,0,2.384,1.133,6.054,5.639,6.054a12.552,12.552,0,0,0,2.71-.328l.2-1.683a9.7,9.7,0,0,1-2.909.561c-2.864,0-3.752-2.313-3.752-4.6,0-2.945,1.31-4.581,3.73-4.581a9.038,9.038,0,0,1,3,.608Z" transform="translate(1.445 1.771)" fill="#ff8000"></path><path id="Path_8749" data-name="Path 8749" d="M492.077,340.91h12.206V279.7H492.077Zm-17.7,0h11.595V306.588c0-10.461-9.677-12.388-17.349-12.388a75.857,75.857,0,0,0-18.743,2.661l-.959,8.535a44.3,44.3,0,0,1,16.825-3.855c3.226,0,8.021.643,8.021,5.6,0,8.993-29.642,3.671-29.642,21.29,0,9.178,6.364,13.582,16.128,13.582,1.57,0,5.319-.55,8.021-.826l1.918-7.892a20.049,20.049,0,0,1-6.888,1.377c-3.487,0-7.585-1.1-7.585-5.507,0-8.076,14.473-7.892,18.657-11.838Z" transform="translate(3.312)" fill="#1a1a2e"></path><path id="Path_8750" data-name="Path 8750" d="M429.409,295.179v-10.92L417.2,287.287v7.892h-6.1v8.994h6.1v25.879c0,8.993,4.533,11.838,12.9,11.838a33.168,33.168,0,0,0,9.765-1.377l1.394-9.177a25.419,25.419,0,0,1-6.451.826c-4.359,0-5.405-3.119-5.405-7.708v-20.28h10.985v-8.994Z" transform="translate(2.426 0.122)" fill="#ff8000"></path><path id="Path_8751" data-name="Path 8751" d="M408.036,330.07a23.959,23.959,0,0,1-10.636,2.57c-8.282,0-12.554-5.69-12.9-14.133-.436-9.085,3.662-15.692,12.554-15.692a27.729,27.729,0,0,1,11.334,2.66l-1.046-9.911a46.471,46.471,0,0,0-12.816-1.743c-16.477,0-22.231,10.92-22.231,23.034,0,16.61,8.806,24.777,22.667,24.777a47.44,47.44,0,0,0,11.944-1.56Zm-63.467-27.255c7.759,0,11.769,5.872,11.769,14.866s-4.011,14.959-11.769,14.959S332.8,326.676,332.8,317.682s4.01-14.866,11.769-14.866m0-8.994c-15.256,0-23.975,9.911-23.975,23.951,0,13.949,8.719,23.86,23.975,23.86s23.975-9.911,23.975-23.86c0-14.041-8.719-23.951-23.975-23.951" transform="translate(0 0.379)" fill="#1a1a2e"></path></g></svg>