<svg width="30" height="22" viewBox="0 0 30 22" fill="none" xmlns="http://www.w3.org/2000/svg">
<path d="M29.028 16.6781C29.028 18.0161 28.4933 19.2323 27.6229 20.1235C26.7517 21.0147 25.5456 21.5808 24.2021 21.6178C23.5147 21.6363 22.8274 21.6472 22.14 21.6472C21.4526 21.6472 20.7653 21.6371 20.0779 21.6178C18.7352 21.5808 17.5283 21.0147 16.6588 20.1235C15.7875 19.2323 15.252 18.0161 15.252 16.6781C15.252 14.9562 16.1367 13.4358 17.4836 12.5497C18.2427 12.0499 18.618 10.8564 17.9753 10.2163C17.7442 9.98616 17.4263 9.87949 17.1016 9.87949C17.0501 9.87949 16.9987 9.88201 16.9472 9.88705C16.8249 9.89965 16.7009 9.90805 16.5753 9.91141C15.8879 9.92989 15.2005 9.93997 14.5132 9.93997C13.8258 9.93997 13.1384 9.92989 12.4511 9.91141C12.3254 9.90721 12.2014 9.89881 12.0791 9.88705C11.7047 9.84841 11.3201 9.95005 11.0527 10.2155C10.8242 10.4431 10.7246 10.7404 10.7246 11.0512C10.7246 11.6165 11.0536 12.2263 11.5436 12.548C11.9138 12.7916 12.2487 13.0831 12.5396 13.414C13.3096 14.285 13.7752 15.4274 13.7752 16.6764C13.7752 18.0144 13.2405 19.2307 12.3693 20.1218C11.4989 21.013 10.2928 21.5792 8.95013 21.6161C8.26276 21.6346 7.57539 21.6455 6.88802 21.6455C6.20065 21.6455 5.51328 21.6354 4.82592 21.6161C3.48239 21.5792 2.27717 21.013 1.4051 20.1218C0.534714 19.2307 0 18.0144 0 16.6764C0 15.3383 0.534714 14.1204 1.4051 13.2292C2.27633 12.3363 3.48239 11.7711 4.82592 11.7349C5.38003 11.7198 5.93583 11.7114 6.49078 11.7089C7.06935 11.7064 7.62599 11.4804 8.03504 11.0731L8.2071 10.9017C9.10194 10.0105 8.88771 8.49525 8.26529 7.39828C8.06118 7.03878 7.90178 6.65156 7.79299 6.24419C7.68334 5.83681 7.62599 5.41012 7.62599 4.96914C7.62599 3.63194 8.16071 2.41402 9.03109 1.52283C9.90148 0.629963 11.1075 0.0646758 12.4519 0.028558C13.1393 0.0100791 13.8266 0 14.514 0C15.2014 0 15.8888 0.0100791 16.5761 0.028558C17.9197 0.0646758 19.1266 0.630803 19.9969 1.52283C20.8673 2.41402 21.402 3.63194 21.402 4.96914C21.402 5.76458 21.2131 6.51717 20.8774 7.18325C20.2542 8.42134 20.0096 10.0937 20.993 11.0731C21.1979 11.2763 21.4391 11.4351 21.7014 11.5426C21.9646 11.6501 22.248 11.7072 22.5381 11.7089C23.093 11.7114 23.648 11.7198 24.2021 11.7349C25.5456 11.7711 26.7509 12.3372 27.6229 13.2292C28.4933 14.1204 29.028 15.3375 29.028 16.6764V16.6781Z" fill="url(#paint0_radial_419_16)"/>
<defs>
<radialGradient id="paint0_radial_419_16" cx="0" cy="0" r="1" gradientTransform="matrix(-58.5883 -20.6065 25.7257 -72.5466 40.7114 14.2786)" gradientUnits="userSpaceOnUse">
<stop stop-color="#D1EDDC"/>
<stop offset="0.32" stop-color="#4D996D"/>
<stop offset="0.65" stop-color="#3A7352"/>
<stop offset="1" stop-color="#011A0C"/>
</radialGradient>
</defs>
</svg>
